<svg xmlns="http://www.w3.org/2000/svg" version="1.1" xmlns:xlink="http://www.w3.org/1999/xlink" xmlns:svgjs="http://svgjs.com/svgjs" width="1440" height="560" preserveAspectRatio="none" viewBox="0 0 1440 560"><g mask="url(&quot;#SvgjsMask1002&quot;)" fill="none"><rect width="1440" height="560" x="0" y="0" fill="rgba(11, 64, 73, 1)"></rect><path d="M283.53 609.96C444.85 608.49 581.62 445.65 906.53 441.78 1231.44 437.91 1365.85 242.67 1529.53 240.18" stroke="rgba(51, 190, 194, 0.58)" stroke-width="2"></path><path d="M221.21 564.23C402.73 547.32 499.59 178.43 832.83 167.11 1166.06 155.79 1287.89 33.5 1444.44 32.71" stroke="rgba(51, 190, 194, 0.58)" stroke-width="2"></path><path d="M819.3 623.49C948.75 540.96 867.89 93.55 1109.97 82.56 1352.06 71.57 1543.04 199.57 1691.32 200.16" stroke="rgba(51, 190, 194, 0.58)" stroke-width="2"></path><path d="M389.04 579.96C580.11 565.47 716.43 187.9 1047.55 187.7 1378.66 187.5 1529.83 435.45 1706.05 439.7" stroke="rgba(51, 190, 194, 0.58)" stroke-width="2"></path><path d="M251.63 587.89C398.8 561.15 462.06 197.7 700.89 192.75 939.73 187.8 925.53 262.75 1150.16 262.75 1374.79 262.75 1485.75 192.96 1599.42 192.75" stroke="rgba(51, 190, 194, 0.58)" stroke-width="2"></path></g><defs><mask id="SvgjsMask1002"><rect width="1440" height="560" fill="#ffffff"></rect></mask></defs></svg>