<svg xmlns="http://www.w3.org/2000/svg" version="1.1" xmlns:xlink="http://www.w3.org/1999/xlink" xmlns:svgjs="http://svgjs.com/svgjs" width="1440" height="900" preserveAspectRatio="none" viewBox="0 0 1440 900"><g mask="url(&quot;#SvgjsMask1544&quot;)" fill="none"><rect width="1440" height="900" x="0" y="0" fill="url(#SvgjsLinearGradient1545)"></rect><path d="M1440 0L984.9 0L1440 125.64z" fill="rgba(255, 255, 255, .1)"></path><path d="M984.9 0L1440 125.64L1440 174.89L464.79999999999995 0z" fill="rgba(255, 255, 255, .075)"></path><path d="M464.79999999999995 0L1440 174.89L1440 211.38L453.06999999999994 0z" fill="rgba(255, 255, 255, .05)"></path><path d="M453.06999999999994 0L1440 211.38L1440 536.53L449.62999999999994 0z" fill="rgba(255, 255, 255, .025)"></path><path d="M0 900L304.32 900L0 661.99z" fill="rgba(0, 0, 0, .1)"></path><path d="M0 661.99L304.32 900L503.85 900L0 606.78z" fill="rgba(0, 0, 0, .075)"></path><path d="M0 606.78L503.85 900L637.38 900L0 501.25z" fill="rgba(0, 0, 0, .05)"></path><path d="M0 501.25L637.38 900L760.99 900L0 282.43z" fill="rgba(0, 0, 0, .025)"></path></g><defs><mask id="SvgjsMask1544"><rect width="1440" height="900" fill="#ffffff"></rect></mask><linearGradient x1="9.37%" y1="-15%" x2="90.63%" y2="115%" gradientUnits="userSpaceOnUse" id="SvgjsLinearGradient1545"><stop stop-color="#0e2a47" offset="0"></stop><stop stop-color="rgba(196, 246, 216, 1)" offset="1"></stop></linearGradient></defs></svg>