<svg xmlns="http://www.w3.org/2000/svg" version="1.1" xmlns:xlink="http://www.w3.org/1999/xlink" xmlns:svgjs="http://svgjs.com/svgjs" width="1440" height="900" preserveAspectRatio="none" viewBox="0 0 1440 900"><g mask="url(&quot;#SvgjsMask2478&quot;)" fill="none"><rect width="1440" height="900" x="0" y="0" fill="url(#SvgjsLinearGradient2479)"></rect><path d="M1440 0L1078.2 0L1440 101.27z" fill="rgba(255, 255, 255, .1)"></path><path d="M1078.2 0L1440 101.27L1440 396.75L895.5 0z" fill="rgba(255, 255, 255, .075)"></path><path d="M895.5 0L1440 396.75L1440 618.83L868.82 0z" fill="rgba(255, 255, 255, .05)"></path><path d="M868.82 0L1440 618.83L1440 630.7L527.1800000000001 0z" fill="rgba(255, 255, 255, .025)"></path><path d="M0 900L513.31 900L0 752.47z" fill="rgba(0, 0, 0, .1)"></path><path d="M0 752.47L513.31 900L579.78 900L0 470.67z" fill="rgba(0, 0, 0, .075)"></path><path d="M0 470.66999999999996L579.78 900L946.1199999999999 900L0 332.60999999999996z" fill="rgba(0, 0, 0, .05)"></path><path d="M0 332.6099999999999L946.1199999999999 900L981.1799999999998 900L0 270.9999999999999z" fill="rgba(0, 0, 0, .025)"></path></g><defs><mask id="SvgjsMask2478"><rect width="1440" height="900" fill="#ffffff"></rect></mask><linearGradient x1="9.37%" y1="-15%" x2="90.63%" y2="115%" gradientUnits="userSpaceOnUse" id="SvgjsLinearGradient2479"><stop stop-color="#0e2a47" offset="0"></stop><stop stop-color="rgba(163, 136, 144, 1)" offset="1"></stop></linearGradient></defs></svg>