<svg xmlns="http://www.w3.org/2000/svg" version="1.1" xmlns:xlink="http://www.w3.org/1999/xlink" xmlns:svgjs="http://svgjs.com/svgjs" width="1440" height="560" preserveAspectRatio="none" viewBox="0 0 1440 560"><g mask="url(&quot;#SvgjsMask1202&quot;)" fill="none"><rect width="1440" height="560" x="0" y="0" fill="rgba(232, 235, 239, 1)"></rect><path d="M250.52 340.55L307.68 373.55L307.68 439.55L250.52 472.55L193.36 439.55L193.36 373.55zM250.52 538.55L307.68 571.55L307.68 637.55L250.52 670.55L193.36 637.55L193.36 571.55zM364.84 142.55L422 175.55L422 241.55L364.84 274.55L307.68 241.55L307.68 175.55zM364.84 340.55L422 373.55L422 439.55L364.84 472.55L307.68 439.55L307.68 373.55zM479.15 -55.45L536.31 -22.45L536.31 43.55L479.15 76.55L422 43.55L422 -22.45zM479.15 142.55L536.31 175.55L536.31 241.55L479.15 274.55L422 241.55L422 175.55zM536.31 241.55L593.47 274.55L593.47 340.55L536.31 373.55L479.15 340.55L479.15 274.55zM593.47 142.55L650.63 175.55L650.63 241.55L593.47 274.55L536.31 241.55L536.31 175.55zM650.63 241.55L707.79 274.55L707.79 340.55L650.63 373.55L593.47 340.55L593.47 274.55zM593.47 538.55L650.63 571.55L650.63 637.55L593.47 670.55L536.31 637.55L536.31 571.55zM707.79 -55.45L764.95 -22.45L764.95 43.55L707.79 76.55L650.63 43.55L650.63 -22.45zM936.43 340.55L993.59 373.55L993.59 439.55L936.43 472.55L879.27 439.55L879.27 373.55zM1050.75 142.55L1107.91 175.55L1107.91 241.55L1050.75 274.55L993.59 241.55L993.59 175.55zM1107.91 241.55L1165.07 274.55L1165.07 340.55L1107.91 373.55L1050.75 340.55L1050.75 274.55zM1222.23 43.55L1279.38 76.55L1279.38 142.55L1222.23 175.55L1165.07 142.55L1165.07 76.55zM1336.54 43.55L1393.7 76.55L1393.7 142.55L1336.54 175.55L1279.38 142.55L1279.38 76.55zM1279.38 142.55L1336.54 175.55L1336.54 241.55L1279.38 274.55L1222.23 241.55L1222.23 175.55z" stroke="rgba(172, 189, 205, 1)" stroke-width="2"></path><path d="M243.92 340.55 a6.6 6.6 0 1 0 13.2 0 a6.6 6.6 0 1 0 -13.2 0zM301.08 373.55 a6.6 6.6 0 1 0 13.2 0 a6.6 6.6 0 1 0 -13.2 0zM301.08 439.55 a6.6 6.6 0 1 0 13.2 0 a6.6 6.6 0 1 0 -13.2 0zM243.92 472.55 a6.6 6.6 0 1 0 13.2 0 a6.6 6.6 0 1 0 -13.2 0zM186.76 439.55 a6.6 6.6 0 1 0 13.2 0 a6.6 6.6 0 1 0 -13.2 0zM186.76 373.55 a6.6 6.6 0 1 0 13.2 0 a6.6 6.6 0 1 0 -13.2 0zM243.92 538.55 a6.6 6.6 0 1 0 13.2 0 a6.6 6.6 0 1 0 -13.2 0zM301.08 571.55 a6.6 6.6 0 1 0 13.2 0 a6.6 6.6 0 1 0 -13.2 0zM301.08 637.55 a6.6 6.6 0 1 0 13.2 0 a6.6 6.6 0 1 0 -13.2 0zM243.92 670.55 a6.6 6.6 0 1 0 13.2 0 a6.6 6.6 0 1 0 -13.2 0zM186.76 637.55 a6.6 6.6 0 1 0 13.2 0 a6.6 6.6 0 1 0 -13.2 0zM186.76 571.55 a6.6 6.6 0 1 0 13.2 0 a6.6 6.6 0 1 0 -13.2 0zM358.24 142.55 a6.6 6.6 0 1 0 13.2 0 a6.6 6.6 0 1 0 -13.2 0zM415.4 175.55 a6.6 6.6 0 1 0 13.2 0 a6.6 6.6 0 1 0 -13.2 0zM415.4 241.55 a6.6 6.6 0 1 0 13.2 0 a6.6 6.6 0 1 0 -13.2 0zM358.24 274.55 a6.6 6.6 0 1 0 13.2 0 a6.6 6.6 0 1 0 -13.2 0zM301.08 241.55 a6.6 6.6 0 1 0 13.2 0 a6.6 6.6 0 1 0 -13.2 0zM301.08 175.55 a6.6 6.6 0 1 0 13.2 0 a6.6 6.6 0 1 0 -13.2 0zM358.24 340.55 a6.6 6.6 0 1 0 13.2 0 a6.6 6.6 0 1 0 -13.2 0zM415.4 373.55 a6.6 6.6 0 1 0 13.2 0 a6.6 6.6 0 1 0 -13.2 0zM415.4 439.55 a6.6 6.6 0 1 0 13.2 0 a6.6 6.6 0 1 0 -13.2 0zM358.24 472.55 a6.6 6.6 0 1 0 13.2 0 a6.6 6.6 0 1 0 -13.2 0zM472.55 -55.45 a6.6 6.6 0 1 0 13.2 0 a6.6 6.6 0 1 0 -13.2 0zM529.71 -22.45 a6.6 6.6 0 1 0 13.2 0 a6.6 6.6 0 1 0 -13.2 0zM529.71 43.55 a6.6 6.6 0 1 0 13.2 0 a6.6 6.6 0 1 0 -13.2 0zM472.55 76.55 a6.6 6.6 0 1 0 13.2 0 a6.6 6.6 0 1 0 -13.2 0zM415.4 43.55 a6.6 6.6 0 1 0 13.2 0 a6.6 6.6 0 1 0 -13.2 0zM415.4 -22.45 a6.6 6.6 0 1 0 13.2 0 a6.6 6.6 0 1 0 -13.2 0zM472.55 142.55 a6.6 6.6 0 1 0 13.2 0 a6.6 6.6 0 1 0 -13.2 0zM529.71 175.55 a6.6 6.6 0 1 0 13.2 0 a6.6 6.6 0 1 0 -13.2 0zM529.71 241.55 a6.6 6.6 0 1 0 13.2 0 a6.6 6.6 0 1 0 -13.2 0zM472.55 274.55 a6.6 6.6 0 1 0 13.2 0 a6.6 6.6 0 1 0 -13.2 0zM586.87 274.55 a6.6 6.6 0 1 0 13.2 0 a6.6 6.6 0 1 0 -13.2 0zM586.87 340.55 a6.6 6.6 0 1 0 13.2 0 a6.6 6.6 0 1 0 -13.2 0zM529.71 373.55 a6.6 6.6 0 1 0 13.2 0 a6.6 6.6 0 1 0 -13.2 0zM472.55 340.55 a6.6 6.6 0 1 0 13.2 0 a6.6 6.6 0 1 0 -13.2 0zM586.87 142.55 a6.6 6.6 0 1 0 13.2 0 a6.6 6.6 0 1 0 -13.2 0zM644.03 175.55 a6.6 6.6 0 1 0 13.2 0 a6.6 6.6 0 1 0 -13.2 0zM644.03 241.55 a6.6 6.6 0 1 0 13.2 0 a6.6 6.6 0 1 0 -13.2 0zM701.19 274.55 a6.6 6.6 0 1 0 13.2 0 a6.6 6.6 0 1 0 -13.2 0zM701.19 340.55 a6.6 6.6 0 1 0 13.2 0 a6.6 6.6 0 1 0 -13.2 0zM644.03 373.55 a6.6 6.6 0 1 0 13.2 0 a6.6 6.6 0 1 0 -13.2 0zM586.87 538.55 a6.6 6.6 0 1 0 13.2 0 a6.6 6.6 0 1 0 -13.2 0zM644.03 571.55 a6.6 6.6 0 1 0 13.2 0 a6.6 6.6 0 1 0 -13.2 0zM644.03 637.55 a6.6 6.6 0 1 0 13.2 0 a6.6 6.6 0 1 0 -13.2 0zM586.87 670.55 a6.6 6.6 0 1 0 13.2 0 a6.6 6.6 0 1 0 -13.2 0zM529.71 637.55 a6.6 6.6 0 1 0 13.2 0 a6.6 6.6 0 1 0 -13.2 0zM529.71 571.55 a6.6 6.6 0 1 0 13.2 0 a6.6 6.6 0 1 0 -13.2 0zM701.19 -55.45 a6.6 6.6 0 1 0 13.2 0 a6.6 6.6 0 1 0 -13.2 0zM758.35 -22.45 a6.6 6.6 0 1 0 13.2 0 a6.6 6.6 0 1 0 -13.2 0zM758.35 43.55 a6.6 6.6 0 1 0 13.2 0 a6.6 6.6 0 1 0 -13.2 0zM701.19 76.55 a6.6 6.6 0 1 0 13.2 0 a6.6 6.6 0 1 0 -13.2 0zM644.03 43.55 a6.6 6.6 0 1 0 13.2 0 a6.6 6.6 0 1 0 -13.2 0zM644.03 -22.45 a6.6 6.6 0 1 0 13.2 0 a6.6 6.6 0 1 0 -13.2 0zM929.83 340.55 a6.6 6.6 0 1 0 13.2 0 a6.6 6.6 0 1 0 -13.2 0zM986.99 373.55 a6.6 6.6 0 1 0 13.2 0 a6.6 6.6 0 1 0 -13.2 0zM986.99 439.55 a6.6 6.6 0 1 0 13.2 0 a6.6 6.6 0 1 0 -13.2 0zM929.83 472.55 a6.6 6.6 0 1 0 13.2 0 a6.6 6.6 0 1 0 -13.2 0zM872.67 439.55 a6.6 6.6 0 1 0 13.2 0 a6.6 6.6 0 1 0 -13.2 0zM872.67 373.55 a6.6 6.6 0 1 0 13.2 0 a6.6 6.6 0 1 0 -13.2 0zM1044.15 142.55 a6.6 6.6 0 1 0 13.2 0 a6.6 6.6 0 1 0 -13.2 0zM1101.31 175.55 a6.6 6.6 0 1 0 13.2 0 a6.6 6.6 0 1 0 -13.2 0zM1101.31 241.55 a6.6 6.6 0 1 0 13.2 0 a6.6 6.6 0 1 0 -13.2 0zM1044.15 274.55 a6.6 6.6 0 1 0 13.2 0 a6.6 6.6 0 1 0 -13.2 0zM986.99 241.55 a6.6 6.6 0 1 0 13.2 0 a6.6 6.6 0 1 0 -13.2 0zM986.99 175.55 a6.6 6.6 0 1 0 13.2 0 a6.6 6.6 0 1 0 -13.2 0zM1158.47 274.55 a6.6 6.6 0 1 0 13.2 0 a6.6 6.6 0 1 0 -13.2 0zM1158.47 340.55 a6.6 6.6 0 1 0 13.2 0 a6.6 6.6 0 1 0 -13.2 0zM1101.31 373.55 a6.6 6.6 0 1 0 13.2 0 a6.6 6.6 0 1 0 -13.2 0zM1044.15 340.55 a6.6 6.6 0 1 0 13.2 0 a6.6 6.6 0 1 0 -13.2 0zM1215.63 43.55 a6.6 6.6 0 1 0 13.2 0 a6.6 6.6 0 1 0 -13.2 0zM1272.78 76.55 a6.6 6.6 0 1 0 13.2 0 a6.6 6.6 0 1 0 -13.2 0zM1272.78 142.55 a6.6 6.6 0 1 0 13.2 0 a6.6 6.6 0 1 0 -13.2 0zM1215.63 175.55 a6.6 6.6 0 1 0 13.2 0 a6.6 6.6 0 1 0 -13.2 0zM1158.47 142.55 a6.6 6.6 0 1 0 13.2 0 a6.6 6.6 0 1 0 -13.2 0zM1158.47 76.55 a6.6 6.6 0 1 0 13.2 0 a6.6 6.6 0 1 0 -13.2 0zM1329.94 43.55 a6.6 6.6 0 1 0 13.2 0 a6.6 6.6 0 1 0 -13.2 0zM1387.1 76.55 a6.6 6.6 0 1 0 13.2 0 a6.6 6.6 0 1 0 -13.2 0zM1387.1 142.55 a6.6 6.6 0 1 0 13.2 0 a6.6 6.6 0 1 0 -13.2 0zM1329.94 175.55 a6.6 6.6 0 1 0 13.2 0 a6.6 6.6 0 1 0 -13.2 0zM1329.94 241.55 a6.6 6.6 0 1 0 13.2 0 a6.6 6.6 0 1 0 -13.2 0zM1272.78 274.55 a6.6 6.6 0 1 0 13.2 0 a6.6 6.6 0 1 0 -13.2 0zM1215.63 241.55 a6.6 6.6 0 1 0 13.2 0 a6.6 6.6 0 1 0 -13.2 0z" fill="rgba(172, 189, 205, 1)"></path><path d="M16.96 292.21L61.99 318.21L61.99 370.21L16.96 396.21L-28.07 370.21L-28.07 318.21zM152.06 214.21L197.1 240.21L197.1 292.21L152.06 318.21L107.03 292.21L107.03 240.21zM287.17 448.21L332.2 474.21L332.2 526.21L287.17 552.21L242.13 526.21L242.13 474.21zM377.24 448.21L422.27 474.21L422.27 526.21L377.24 552.21L332.2 526.21L332.2 474.21zM422.27 526.21L467.31 552.21L467.31 604.21L422.27 630.21L377.24 604.21L377.24 552.21zM512.34 58.21L557.38 84.21L557.38 136.21L512.34 162.21L467.31 136.21L467.31 84.21zM467.31 292.21L512.34 318.21L512.34 370.21L467.31 396.21L422.27 370.21L422.27 318.21zM512.34 526.21L557.38 552.21L557.38 604.21L512.34 630.21L467.31 604.21L467.31 552.21zM872.62 214.21L917.65 240.21L917.65 292.21L872.62 318.21L827.58 292.21L827.58 240.21zM872.62 370.21L917.65 396.21L917.65 448.21L872.62 474.21L827.58 448.21L827.58 396.21zM962.69 526.21L1007.72 552.21L1007.72 604.21L962.69 630.21L917.65 604.21L917.65 552.21zM1052.76 370.21L1097.79 396.21L1097.79 448.21L1052.76 474.21L1007.72 448.21L1007.72 396.21zM1187.86 136.21L1232.89 162.21L1232.89 214.21L1187.86 240.21L1142.83 214.21L1142.83 162.21zM1322.96 214.21L1368 240.21L1368 292.21L1322.96 318.21L1277.93 292.21L1277.93 240.21zM1277.93 448.21L1322.96 474.21L1322.96 526.21L1277.93 552.21L1232.89 526.21L1232.89 474.21zM1368 -19.79L1413.03 6.21L1413.03 58.21L1368 84.21L1322.96 58.21L1322.96 6.21zM1368 136.21L1413.03 162.21L1413.03 214.21L1368 240.21L1322.96 214.21L1322.96 162.21zM1368 292.21L1413.03 318.21L1413.03 370.21L1368 396.21L1322.96 370.21L1322.96 318.21z" stroke="rgba(206, 210, 215, 0.93)" stroke-width="2"></path></g><defs><mask id="SvgjsMask1202"><rect width="1440" height="560" fill="#ffffff"></rect></mask></defs></svg>