<svg xmlns="http://www.w3.org/2000/svg" version="1.1" xmlns:xlink="http://www.w3.org/1999/xlink" xmlns:svgjs="http://svgjs.com/svgjs" width="1440" height="900" preserveAspectRatio="none" viewBox="0 0 1440 900"><g mask="url(&quot;#SvgjsMask2480&quot;)" fill="none"><rect width="1440" height="900" x="0" y="0" fill="url(#SvgjsLinearGradient2481)"></rect><path d="M0 0L213.21 0L0 221.66z" fill="rgba(255, 255, 255, .1)"></path><path d="M0 221.66L213.21 0L503.38 0L0 286.94z" fill="rgba(255, 255, 255, .075)"></path><path d="M0 286.94L503.38 0L979.44 0L0 511.14z" fill="rgba(255, 255, 255, .05)"></path><path d="M0 511.14L979.44 0L1009.6600000000001 0L0 540.93z" fill="rgba(255, 255, 255, .025)"></path><path d="M1440 900L903.15 900L1440 632.8199999999999z" fill="rgba(0, 0, 0, .1)"></path><path d="M1440 632.8199999999999L903.15 900L888.99 900L1440 568z" fill="rgba(0, 0, 0, .075)"></path><path d="M1440 568L888.99 900L339.46000000000004 900L1440 343.13z" fill="rgba(0, 0, 0, .05)"></path><path d="M1440 343.13L339.46000000000004 900L168.97000000000003 900L1440 331.52z" fill="rgba(0, 0, 0, .025)"></path></g><defs><mask id="SvgjsMask2480"><rect width="1440" height="900" fill="#ffffff"></rect></mask><linearGradient x1="9.37%" y1="-15%" x2="90.63%" y2="115%" gradientUnits="userSpaceOnUse" id="SvgjsLinearGradient2481"><stop stop-color="#0e2a47" offset="0"></stop><stop stop-color="rgba(163, 136, 144, 1)" offset="1"></stop></linearGradient></defs></svg>