<svg xmlns="http://www.w3.org/2000/svg" version="1.1" xmlns:xlink="http://www.w3.org/1999/xlink" xmlns:svgjs="http://svgjs.com/svgjs" width="1440" height="560" preserveAspectRatio="none" viewBox="0 0 1440 560"><g mask="url(&quot;#SvgjsMask1099&quot;)" fill="none"><rect width="1440" height="560" x="0" y="0" fill="rgba(28, 56, 85, 1)"></rect><path d="M1170 420L1513 763" stroke-width="8" stroke="url(#SvgjsLinearGradient1100)" stroke-linecap="round" class="BottomRight"></path><path d="M1329 395L1107 173" stroke-width="6" stroke="url(#SvgjsLinearGradient1100)" stroke-linecap="round" class="BottomRight"></path><path d="M784 22L1065 303" stroke-width="8" stroke="url(#SvgjsLinearGradient1100)" stroke-linecap="round" class="BottomRight"></path><path d="M1236 323L931 18" stroke-width="10" stroke="url(#SvgjsLinearGradient1100)" stroke-linecap="round" class="BottomRight"></path><path d="M1037 62L1230 255" stroke-width="10" stroke="url(#SvgjsLinearGradient1100)" stroke-linecap="round" class="BottomRight"></path><path d="M1299 143L1570 414" stroke-width="6" stroke="url(#SvgjsLinearGradient1100)" stroke-linecap="round" class="BottomRight"></path><path d="M1237 521L1511 795" stroke-width="8" stroke="url(#SvgjsLinearGradient1100)" stroke-linecap="round" class="BottomRight"></path><path d="M393 234L78 -81" stroke-width="10" stroke="url(#SvgjsLinearGradient1100)" stroke-linecap="round" class="BottomRight"></path><path d="M1123 144L956 -23" stroke-width="10" stroke="url(#SvgjsLinearGradient1101)" stroke-linecap="round" class="TopLeft"></path><path d="M331 141L519 329" stroke-width="8" stroke="url(#SvgjsLinearGradient1101)" stroke-linecap="round" class="TopLeft"></path><path d="M958 480L1302 824" stroke-width="8" stroke="url(#SvgjsLinearGradient1100)" stroke-linecap="round" class="BottomRight"></path><path d="M241 55L17 -169" stroke-width="6" stroke="url(#SvgjsLinearGradient1101)" stroke-linecap="round" class="TopLeft"></path><path d="M884 505L1168 789" stroke-width="10" stroke="url(#SvgjsLinearGradient1101)" stroke-linecap="round" class="TopLeft"></path><path d="M869 267L1101 499" stroke-width="6" stroke="url(#SvgjsLinearGradient1100)" stroke-linecap="round" class="BottomRight"></path><path d="M395 519L32 156" stroke-width="6" stroke="url(#SvgjsLinearGradient1100)" stroke-linecap="round" class="BottomRight"></path><path d="M547 62L316 -169" stroke-width="8" stroke="url(#SvgjsLinearGradient1101)" stroke-linecap="round" class="TopLeft"></path><path d="M1011 383L769 141" stroke-width="8" stroke="url(#SvgjsLinearGradient1100)" stroke-linecap="round" class="BottomRight"></path><path d="M1261 364L1502 605" stroke-width="6" stroke="url(#SvgjsLinearGradient1100)" stroke-linecap="round" class="BottomRight"></path><path d="M1360 40L1744 424" stroke-width="8" stroke="url(#SvgjsLinearGradient1101)" stroke-linecap="round" class="TopLeft"></path><path d="M1329 553L997 221" stroke-width="6" stroke="url(#SvgjsLinearGradient1101)" stroke-linecap="round" class="TopLeft"></path><path d="M332 367L584 619" stroke-width="8" stroke="url(#SvgjsLinearGradient1101)" stroke-linecap="round" class="TopLeft"></path><path d="M383 441L717 775" stroke-width="8" stroke="url(#SvgjsLinearGradient1101)" stroke-linecap="round" class="TopLeft"></path><path d="M1434 276L1136 -22" stroke-width="6" stroke="url(#SvgjsLinearGradient1101)" stroke-linecap="round" class="TopLeft"></path><path d="M472 517L238 283" stroke-width="8" stroke="url(#SvgjsLinearGradient1101)" stroke-linecap="round" class="TopLeft"></path><path d="M57 116L-178 -119" stroke-width="10" stroke="url(#SvgjsLinearGradient1100)" stroke-linecap="round" class="BottomRight"></path><path d="M670 537L515 382" stroke-width="8" stroke="url(#SvgjsLinearGradient1101)" stroke-linecap="round" class="TopLeft"></path><path d="M1316 400L1143 227" stroke-width="6" stroke="url(#SvgjsLinearGradient1101)" stroke-linecap="round" class="TopLeft"></path><path d="M510 470L339 299" stroke-width="8" stroke="url(#SvgjsLinearGradient1100)" stroke-linecap="round" class="BottomRight"></path><path d="M11 383L258 630" stroke-width="8" stroke="url(#SvgjsLinearGradient1101)" stroke-linecap="round" class="TopLeft"></path><path d="M327 550L695 918" stroke-width="8" stroke="url(#SvgjsLinearGradient1101)" stroke-linecap="round" class="TopLeft"></path><path d="M514 6L823 315" stroke-width="6" stroke="url(#SvgjsLinearGradient1100)" stroke-linecap="round" class="BottomRight"></path><path d="M5 429L-369 55" stroke-width="6" stroke="url(#SvgjsLinearGradient1101)" stroke-linecap="round" class="TopLeft"></path><path d="M1385 406L1599 620" stroke-width="6" stroke="url(#SvgjsLinearGradient1101)" stroke-linecap="round" class="TopLeft"></path><path d="M106 446L-50 290" stroke-width="6" stroke="url(#SvgjsLinearGradient1100)" stroke-linecap="round" class="BottomRight"></path><path d="M1378 368L1170 160" stroke-width="6" stroke="url(#SvgjsLinearGradient1100)" stroke-linecap="round" class="BottomRight"></path><path d="M311 250L-63 -124" stroke-width="10" stroke="url(#SvgjsLinearGradient1101)" stroke-linecap="round" class="TopLeft"></path><path d="M349 260L-44 -133" stroke-width="6" stroke="url(#SvgjsLinearGradient1101)" stroke-linecap="round" class="TopLeft"></path><path d="M539 374L745 580" stroke-width="6" stroke="url(#SvgjsLinearGradient1100)" stroke-linecap="round" class="BottomRight"></path><path d="M924 82L1193 351" stroke-width="10" stroke="url(#SvgjsLinearGradient1101)" stroke-linecap="round" class="TopLeft"></path></g><defs><mask id="SvgjsMask1099"><rect width="1440" height="560" fill="#ffffff"></rect></mask><linearGradient x1="0%" y1="0%" x2="100%" y2="100%" id="SvgjsLinearGradient1100"><stop stop-color="rgba(233, 215, 204, 0)" offset="0"></stop><stop stop-color="rgba(233, 215, 204, 1)" offset="1"></stop></linearGradient><linearGradient x1="100%" y1="100%" x2="0%" y2="0%" id="SvgjsLinearGradient1101"><stop stop-color="rgba(233, 215, 204, 0)" offset="0"></stop><stop stop-color="rgba(233, 215, 204, 1)" offset="1"></stop></linearGradient></defs></svg>